<?xml version="1.0" standalone="no"?><!DOCTYPE svg PUBLIC "-//W3C//DTD SVG 1.1//EN" "http://www.w3.org/Graphics/SVG/1.1/DTD/svg11.dtd"><svg t="1485933034379" class="icon" style="" viewBox="0 0 1024 1024" version="1.1" xmlns="http://www.w3.org/2000/svg" p-id="2334" xmlns:xlink="http://www.w3.org/1999/xlink" width="32" height="32"><defs><style type="text/css"></style></defs><path d="M920.792918 97.825003c-23.316032-24.252357-54.499242-37.547151-87.623663-37.547151L184.333774 60.277852c-33.119305 0-64.307631 13.295817-87.620593 37.474496-23.312962 24.237007-36.286438 56.410777-36.286438 90.814332l0 428.103218c0 34.403554 12.973476 66.578348 36.286438 90.76112 23.455201 24.237007 54.501288 37.600363 87.620593 37.600363l63.061244 0 69.001537 214.59652L523.379677 745.031381 833.169255 745.031381c33.124422 0 64.168462-13.364379 87.623663-37.547151 23.329335-24.237007 36.298717-56.410777 36.298717-90.814332L957.091636 188.56668C957.091636 154.163125 944.122253 121.989355 920.792918 97.825003zM886.439506 616.668875c0 14.736633-5.52176 28.607548-15.59621 38.974663-10.075473 10.438747-23.456225 16.171308-37.673018 16.171308l-339.04181 0L347.298356 824.044946l-49.116651-152.2301L184.333774 671.814846c-14.2127 0-27.593452-5.732561-37.668924-16.246009-10.075473-10.292414-15.585977-24.162306-15.585977-38.899962L131.078873 188.56668c0-14.731516 5.510504-28.601408 15.585977-38.97364 10.075473-10.365068 23.455201-16.092513 37.668924-16.092513L833.169255 133.500527c14.217816 0 27.598568 5.727445 37.673018 16.167215 10.075473 10.29753 15.59621 24.167422 15.59621 38.899962L886.438483 616.668875z" p-id="2335"></path></svg>